<svg id="Calque_1" data-name="Calque 1" xmlns="http://www.w3.org/2000/svg" viewBox="0 0 519.72 542.54"><defs><style>.cls-1{fill:none;}.cls-2{font-size:200px;font-family:Lobster-Regular, Lobster;}</style></defs><title>LeonArt</title><g id="I_shape" data-name="I shape"><polygon points="134.19 159.15 37.02 113.7 124.55 52.29 128.66 95.28 134.19 159.15"/><polygon points="261.98 351.58 272.99 458.43 175.37 414.83 210.13 389.2 261.98 351.58"/><polygon points="156.81 406.04 59.49 360.56 147.16 299.19 151.19 342.22 156.81 406.04"/><polygon points="44.8 244.95 142.11 290.43 54.45 351.81 50.42 308.77 44.8 244.95"/><polygon points="156.93 301.12 254.67 345.54 167.73 407.77 163.17 364.81 156.93 301.12"/><polygon points="145.72 282.47 48.33 237.26 135.81 175.76 140.01 218.7 145.72 282.47"/><polygon points="34.88 123.01 132.11 168.54 44.53 229.87 40.42 186.88 34.88 123.01"/><polygon points="23.42 0 120.6 45.45 33.02 106.77 28.91 63.78 23.42 0"/></g><g id="Calque_3" data-name="Calque 3"><line class="cls-1" x1="208.7" y1="336.04" y2="41.34"/><line class="cls-1" x1="252.7" y1="229.24" x2="115.7" y2="36.44"/><line class="cls-1" x1="95.7" y1="352.54" x2="244.4" y2="29.94"/></g><text class="cls-2" transform="translate(148.72 269.58)">A</text></svg>