<?xml version="1.0" encoding="utf-8"?>
<!-- Generator: Adobe Illustrator 21.1.0, SVG Export Plug-In . SVG Version: 6.00 Build 0)  -->
<svg version="1.1" id="Calque_1" xmlns="http://www.w3.org/2000/svg" xmlns:xlink="http://www.w3.org/1999/xlink" x="0px" y="0px"
	 viewBox="0 0 353 77.7" style="enable-background:new 0 0 353 77.7;" xml:space="preserve">
<style type="text/css">
	.st0{fill:none;}
	.st1{font-family:'ArialMT';}
	.st2{font-size:33.4475px;}
</style>
<g>
	<path d="M36.1,5.4c1.8-1.1,3.6-1.8,5.4-2c1.8-0.2,3.5-0.1,4.9,0.5s2.5,1.6,3.3,3s1.2,3.1,1.5,5.1s0.2,3.9,0,6.1
		c-0.2,2.1-0.7,4.2-1.3,6.2c-0.2,0.5-0.3,0.9-0.5,1.3c-0.1,0.4-0.2,0.8-0.3,1.2c-0.1,0.4-0.6,0.8-1.3,1.2c-0.7,0.4-1.5,0.7-2.2,0.9
		c-0.8,0.2-1.5,0.4-2.1,0.4s-0.8-0.1-0.7-0.4L42.7,29c0-0.2,0.1-0.5,0.2-0.7c0.1-0.3,0.2-0.5,0.2-0.7c0.4-1.3,0.8-2.7,1.2-4.3
		c0.4-1.6,0.7-3.2,1-4.8c0.3-1.6,0.5-3.2,0.6-4.7c0.2-1.6,0.2-3,0.1-4.1c-0.1-1.2-0.4-2.1-0.8-2.8c-0.5-0.7-1.1-1.1-2-1.1
		c-1.2,0-2.5,1.1-3.9,3.2s-3.1,5.3-5.2,9.4c-0.6,1.1-1.3,2.6-2.2,4.4C31,24.7,30,26.7,29,29c-1.1,2.3-2.2,4.6-3.3,7
		c-1.2,2.4-2.3,4.7-3.3,6.9s-2,4.2-2.8,6c-0.9,1.8-1.5,3.2-2,4.2c1.1-0.1,2.2-0.2,3.4-0.4c1.2-0.1,2.4-0.3,3.6-0.4
		c1.2-0.1,2.4-0.1,3.7-0.1c1.3,0,2.5,0.1,3.7,0.3c1.7,0.2,3.2,0.8,4.5,1.6s2.4,1.8,3.4,2.9c0.9,1.1,1.7,2.4,2.3,3.7
		c0.6,1.4,1,2.7,1.2,4.1c0.2,1.4,0.2,2.6,0,3.8c-0.2,1.2-0.5,2.2-1,3.1c-0.2,0.4-0.5,0.7-0.8,0.9c-0.3,0.2-0.6,0.4-0.9,0.7
		c-0.3,0.3-0.9,0.3-1.6,0c-0.7-0.3-1.4-0.6-2.1-1.1c-0.7-0.5-1.2-1-1.6-1.5s-0.5-0.9-0.4-1.1l-0.1,0.1c0.2-0.1,0.5-0.3,0.6-0.3
		c0.2-0.1,0.4-0.2,0.5-0.4c2.3-1.9,3.7-3.5,4-4.8c0.4-1.3,0-2.3-1-3.1s-2.5-1.4-4.5-1.7c-2-0.4-4.2-0.5-6.6-0.5s-4.8,0.1-7.2,0.4
		c-2.4,0.3-4.5,0.6-6.3,1c-2.7,0.6-4.7,1.2-6.1,1.7s-2.7,0.9-3.8,1c-0.3,0-0.8-0.2-1.3-0.9c-0.5-0.6-1-1.4-1.5-2.2s-0.8-1.6-0.9-2.3
		c-0.2-0.7,0-1.2,0.4-1.3l8-2.3c0.2,0,0.6-0.6,1.3-1.8c0.7-1.3,1.5-3,2.6-5c1-2.1,2.2-4.5,3.5-7.2s2.6-5.5,4-8.5
		c1.4-2.9,2.8-5.8,4.3-8.7c1.4-2.9,2.9-5.5,4.2-7.9c1.4-2.4,2.7-4.5,3.9-6.2C34.1,7.1,35.2,6,36.1,5.4z"/>
	<path d="M51.5,56c1.6,0.5,3.2,0.6,4.9,0.2c1.7-0.4,3.3-1,4.9-1.8c1.6-0.9,3.2-2,4.7-3.2c1.5-1.3,2.9-2.6,4.1-4.1
		c1.2-1.4,2.3-2.8,3.2-4.2c0.9-1.4,1.6-2.6,2-3.7c0.2-0.5,0.6-0.7,1.1-0.6c0.5,0,1.1,0.2,1.7,0.5s1.1,0.7,1.5,1.1
		c0.4,0.5,0.6,0.8,0.5,1.1c-0.4,1.5-1.1,3-2,4.6s-2,3.1-3.3,4.7c-1.3,1.5-2.8,2.9-4.4,4.3c-1.6,1.3-3.3,2.5-5.1,3.4
		c-1.8,0.9-3.7,1.6-5.6,2c-1.9,0.4-3.9,0.4-5.9,0.1c-1-0.2-2.1-0.6-3.4-1.3s-2.5-1.6-3.6-2.7c-1.1-1.1-2-2.3-2.7-3.8
		c-0.7-1.4-1-3-0.8-4.7c0.1-1.6,0.5-3.3,1.2-5.1s1.5-3.5,2.6-5.3c1-1.7,2.2-3.4,3.6-4.9c1.3-1.5,2.7-2.9,4.1-4.1
		c1.4-1.2,2.9-2.1,4.3-2.8c1.5-0.7,2.8-1,4.1-1c1,0,2,0.3,2.9,1s1.7,1.5,2.4,2.5c0.7,1,1.1,2,1.5,3.1c0.3,1,0.3,1.9,0,2.6
		c-0.7,1.8-1.5,3.3-2.5,4.7s-2.1,2.5-3.3,3.5c-1.2,1-2.3,1.8-3.5,2.5s-2.2,1.2-3.2,1.6c-0.9,0.4-1.7,0.7-2.4,0.8
		c-0.6,0.2-1,0.2-1.1,0.2c-0.2,0-0.5-0.2-0.9-0.5s-0.7-0.5-1-0.9c-0.3-0.3-0.6-0.6-0.9-1c-0.3-0.4-0.5-0.7-0.6-0.9
		c-0.4,0.9-0.8,1.9-1.1,3.1c-0.4,1.2-0.6,2.4-0.7,3.6c-0.1,1.2,0.1,2.3,0.5,3.2C49.5,54.9,50.3,55.6,51.5,56z M65.4,32.6
		c0.4-0.9,0.7-1.5,0.7-1.9c0.1-0.4,0-0.6-0.2-0.6s-0.6,0-1.1,0.2S63.7,30.8,63,31c-1.1,0.5-2.2,1.2-3.4,2s-2.3,1.7-3.4,2.7
		c-1.1,1-2.1,2.1-3,3.3s-1.6,2.4-2.2,3.6c1.3,0,2.7-0.4,4.3-1.1c1.5-0.7,3-1.6,4.3-2.7c1.4-1,2.6-2.1,3.6-3.3
		C64.2,34.4,65,33.4,65.4,32.6z"/>
	<path d="M99.3,33.6c0.2,0.8,0.2,1.8,0.1,3.2s-0.4,3-0.9,4.7c-0.5,1.8-1.1,3.6-2,5.6s-1.9,3.9-3.1,5.8c-0.1,0.1-0.1,0.3,0,0.4
		c0.5,0.1,1,0.1,1.6,0c0.9-0.4,1.9-1.2,3-2.4s2.2-2.7,3.3-4.3c1.1-1.7,2.1-3.4,3.1-5.3c0.9-1.9,1.7-3.7,2.2-5.4
		c0-0.2,0.3-0.1,0.7,0.3c0.4,0.4,0.8,0.9,1.2,1.5s0.8,1.3,1.1,2c0.3,0.7,0.4,1.2,0.4,1.6c-0.3,1.4-1,3-2,4.9s-2.3,3.7-3.8,5.4
		c-1.5,1.8-3.1,3.2-4.8,4.4c-1.7,1.1-3.4,1.7-5.1,1.7h-0.5c-0.4,0-0.6,0-0.8-0.1c-1-0.1-2-0.3-2.8-0.6c-0.6,0.6-1.2,1.1-1.8,1.7
		c-0.6,0.5-1.3,1.1-1.9,1.5c-1.2,0.9-2.6,1.4-4.2,1.5s-3.1-0.1-4.6-0.5c-1.5-0.5-2.8-1.1-4-2s-2-1.8-2.5-2.7s-0.7-2.2-0.7-3.7
		s0.2-3.2,0.6-5s1-3.7,1.7-5.6c0.7-1.9,1.6-3.8,2.7-5.6s2.3-3.4,3.6-4.9c1.3-1.5,2.7-2.7,4.3-3.6c1.7-0.9,3.4-1.4,5.2-1.4
		c1.8,0,3.4,0.4,4.9,1s2.8,1.5,3.8,2.6S99,32.5,99.3,33.6z M76.4,55c0.6,1.1,1.3,1.9,2,2.3c0.7,0.4,1.5,0.5,2.3,0.3s1.6-0.6,2.5-1.4
		c0.9-0.7,1.7-1.6,2.5-2.6c-1.3-1.6-2.1-3.5-2.4-5.6s0-4.2,0.9-6.2c0.6-1.3,1.2-2.2,2-2.7s1.6-0.9,2.4-1s1.6-0.1,2.3,0
		s1.3,0.2,1.7,0.3c0,0,0.1,0.1,0.2,0.1c0.4-1.4,0.6-2.7,0.7-3.9s0-2.2-0.2-2.9c-0.3-0.7-0.7-1.1-1.4-1.3c-0.6-0.1-1.5,0.1-2.7,0.7
		c-1,0.6-2.1,1.4-3.2,2.6s-2.3,2.5-3.3,4c-1.1,1.5-2.1,3.1-3,4.8s-1.7,3.3-2.3,4.9c-0.6,1.6-1,3.1-1.2,4.4
		C75.9,53.1,76,54.2,76.4,55z M92.5,39.3l-0.3,0.2c-0.4,0.2-0.9,0.5-1.4,0.9s-0.8,0.8-1.1,1.2c-0.9,1.5-1.4,2.8-1.6,4.1
		s-0.1,2.4,0.2,3.4c0.9-1.6,1.6-3.2,2.3-4.9C91.5,42.6,92,40.9,92.5,39.3z"/>
	<path d="M114.8,31.4c-0.6,1.1-1.1,2-1.5,2.8s-0.8,1.5-1.2,2.2c-0.4,0.7-0.7,1.3-1,1.8s-0.6,1.1-0.9,1.6c-0.1-0.1,0-0.6,0.5-1.3
		s1.2-1.6,2.1-2.7c0.9-1,1.9-2.2,3-3.4s2.2-2.3,3.2-3.4c1.1-1.1,2.1-2,3-2.8s1.6-1.3,2.2-1.6c0.4-0.2,1.1-0.1,2,0.3s1.7,1,2.5,1.7
		s1.5,1.5,2,2.4s0.6,1.7,0.4,2.4c-0.6,1.4-1.3,2.9-2.2,4.6c-0.8,1.7-1.7,3.4-2.6,5.1c-0.9,1.8-1.7,3.5-2.5,5.2s-1.3,3.2-1.7,4.6
		c-0.4,1.4-0.5,2.5-0.5,3.4c0.1,0.9,0.5,1.5,1.3,1.7c0.7,0.2,1.4,0,2.3-0.6S127,54,128,53c1-1,2-2.2,3-3.5s2-2.7,2.9-4.1
		c0.9-1.4,1.8-2.8,2.6-4.1s1.5-2.5,2-3.5c0.1-0.2,0.4-0.3,0.9-0.1s0.9,0.4,1.4,0.8c0.4,0.4,0.8,0.8,1.1,1.3s0.4,0.9,0.2,1.3
		c-0.2,0.6-0.7,1.4-1.4,2.6c-0.7,1.2-1.5,2.5-2.4,3.9s-2,2.9-3.1,4.4s-2.3,2.9-3.6,4.1c-1.2,1.2-2.5,2.2-3.7,3
		c-1.3,0.8-2.4,1.1-3.5,1c-0.9,0-1.8-0.3-3-0.8s-2.2-1.2-3.2-2s-1.7-1.8-2.3-3c-0.6-1.1-0.7-2.4-0.4-3.8c0.3-1.8,1.1-4.1,2.5-6.8
		c1.3-2.7,2.9-5.8,4.9-9.4c0-0.1,0-0.2,0.1-0.2c0.4-0.5,0.4-0.7-0.1-0.4c-0.5,0.3-1.5,1-2.8,2.2c-1.4,1.2-3.2,2.8-5.3,4.9
		c-2.2,2.1-4.7,4.8-7.6,7.9c-0.4,0.4-0.9,1.2-1.4,2.3c-0.6,1.1-1.1,2.3-1.6,3.5s-0.9,2.3-1.3,3.2s-0.6,1.4-0.6,1.5
		c-0.4,0.4-0.9,0.5-1.4,0.1c-0.6-0.3-1.1-0.9-1.6-1.6c-0.5-0.7-0.9-1.5-1.1-2.3c-0.3-0.9-0.3-1.5,0-2.1c0.6-1.3,1.4-3,2.3-5
		s2-4.3,3.1-6.8s2.4-5.2,3.7-8.1c1.3-2.9,2.6-5.8,3.9-8.8c0.3-0.7,0.7-0.8,1.3-0.5c0.6,0.3,1.1,0.9,1.7,1.7c0.5,0.8,0.9,1.7,1.2,2.7
		C115.2,29.9,115.2,30.7,114.8,31.4z"/>
	<path d="M144.3,18.1c0.9,0.5,1.8,0.5,2.6,0s1.4-1.2,1.8-2.1c0.4-0.9,0.6-2,0.6-3.2s-0.3-2.2-0.9-3.2l0.1,0.1c0.1-0.3,0.6-0.7,1.4-1
		c0.8-0.4,1.7-0.6,2.7-0.8c1-0.2,1.9-0.2,2.8,0c0.9,0.1,1.4,0.6,1.5,1.3c0.2,0.9,0,2.2-0.7,3.6c-0.6,1.5-1.6,2.9-2.7,4.2
		c-1.2,1.3-2.6,2.4-4.1,3.3c-1.6,0.9-3.2,1.2-4.8,1.1c-0.4,0-0.6-0.3-0.8-0.6c-0.1-0.4-0.2-0.8-0.2-1.2s0.1-0.8,0.2-1.1
		C144,18.1,144.2,18,144.3,18.1z"/>
	<path d="M181.8,33.6c1.8-0.5,3-1,3.7-1.7c0.7-0.6,0.9-1.2,0.7-1.7s-0.7-0.8-1.6-1c-0.9-0.1-1.9,0-3.1,0.6c-1.7,0.7-3.4,2-5.2,3.8
		c-1.8,1.8-3.3,3.9-4.8,6.2c-1.4,2.3-2.6,4.6-3.6,7c-0.9,2.4-1.5,4.5-1.6,6.3c0,0.6,0.1,1,0.4,1.3c0.3,0.3,0.7,0.5,1.2,0.5
		c1.1,0,2.2-0.4,3.4-1.1c1.2-0.8,2.4-1.8,3.6-3c1.2-1.3,2.4-2.7,3.6-4.2c1.2-1.5,2.4-3.1,3.5-4.7c1.1-1.6,2.2-3.1,3.2-4.6
		s1.9-2.7,2.7-3.8c0-0.1,0.3,0,0.8,0.4c0.5,0.3,1,0.8,1.5,1.3s0.9,1.1,1.2,1.6c0.3,0.6,0.4,1,0.2,1.4c0,0-0.2,0.4-0.5,1
		s-0.7,1.3-1.1,2.2c-0.4,0.8-0.8,1.6-1.2,2.5c-0.4,0.8-0.7,1.4-0.9,1.8c-0.4,0.9-0.8,1.9-1.2,3.1c-0.4,1.1-0.7,2.2-0.9,3.3
		c-0.2,1-0.4,1.9-0.4,2.7s0,1.2,0.3,1.3c0.8,0.3,1.8-0.2,3-1.4s2.5-2.8,3.7-4.8c1.3-1.9,2.5-4,3.6-6.3s2-4.3,2.7-6
		c0-0.2,0.3-0.2,0.6,0.1c0.4,0.3,0.8,0.6,1.2,1.1s0.8,1,1.1,1.6s0.5,1,0.5,1.4s-0.2,1.2-0.6,2.3c-0.4,1.1-1,2.3-1.8,3.7
		s-1.7,2.8-2.7,4.3s-2.1,2.9-3.3,4.1c-1.1,1.2-2.3,2.3-3.5,3.1s-2.4,1.2-3.5,1.2c-0.7,0-1.5-0.2-2.3-0.7c-0.9-0.5-1.7-1-2.4-1.7
		c-0.8-0.7-1.4-1.4-1.9-2.1c-0.5-0.7-0.7-1.3-0.7-1.8v-0.5c-0.9,0.9-1.8,1.8-2.7,2.6s-1.7,1.6-2.6,2.2c-0.9,0.6-1.7,1.1-2.5,1.5
		c-0.8,0.3-1.6,0.4-2.4,0.3c-1-0.2-2-0.7-2.9-1.4c-0.9-0.8-1.6-1.6-2.3-2.7c-0.7-1-1.2-2.1-1.6-3.2c-0.4-1.1-0.6-2.1-0.6-3
		c0-1.6,0.2-3.3,0.7-5.2s1.3-3.7,2.3-5.6c1-1.9,2.1-3.7,3.4-5.4c1.3-1.8,2.6-3.3,4.1-4.7c1.4-1.4,2.9-2.4,4.3-3.2
		c1.4-0.8,2.8-1.2,4.1-1.2c1.1,0,2.1,0.2,3.1,0.7s1.9,1.1,2.7,1.7c0.8,0.7,1.4,1.4,1.9,2.1s0.7,1.4,0.8,1.9c0.1,1.2-0.2,2.3-0.7,3.2
		c-0.6,0.9-1.4,1.7-2.5,2.3c-0.6,0.3-1.1,0.6-1.6,0.8c-0.1,0.1-0.4,0-0.7-0.4s-0.6-0.8-0.9-1.3c-0.3-0.5-0.6-1-0.7-1.4
		C181.7,33.9,181.7,33.7,181.8,33.6z"/>
	<path d="M206.4,32.2c-0.1,0.2,0.2,0,0.9-0.5c0.7-0.5,1.4-1.1,2.3-1.9c0.9-0.8,1.8-1.6,2.7-2.5s1.6-1.6,2-2.1
		c0.4-0.6,0.9-0.7,1.5-0.3s1.1,0.9,1.6,1.7c0.5,0.8,1,1.6,1.4,2.4c0.4,0.9,0.6,1.5,0.6,2c0,0.3-0.2,0.9-0.7,2c-0.5,1-1,2.3-1.7,3.7
		s-1.4,2.9-2.1,4.4c-0.7,1.5-1.3,2.9-1.8,4.2c-1.2,3.1-2.1,5.7-2.6,7.7c-0.5,2.1-0.3,3.4,0.7,3.9c0.8,0.4,1.6,0.3,2.5-0.3
		s1.8-1.5,2.8-2.6c0.9-1.2,1.8-2.5,2.7-4s1.7-3,2.4-4.5s1.4-2.8,1.8-4c0.5-1.2,0.8-2.1,1-2.6c0-0.1,0.3-0.2,0.9-0.1
		c0.5,0.1,1.1,0.2,1.6,0.5c0.6,0.3,1.1,0.6,1.5,1s0.5,0.9,0.2,1.5c-0.2,0.5-0.6,1.4-1,2.6c-0.4,1.2-1,2.6-1.6,4.1
		c-0.7,1.5-1.5,3.1-2.5,4.7s-2.1,3-3.3,4.2c-1.3,1.2-2.7,2.2-4.3,2.8s-3.4,0.7-5.4,0.3c-0.3,0-0.8-0.3-1.6-0.9
		c-0.8-0.5-1.6-1.2-2.3-1.9c-0.8-0.8-1.5-1.6-2-2.6c-0.6-0.9-0.8-1.9-0.7-2.8c0.1-1.2,0.4-2.6,1.1-4.3c0.6-1.7,1.3-3.4,2-5.2
		c0.7-1.7,1.3-3.3,1.9-4.8c0.6-1.5,0.9-2.6,1-3.3c-0.6,0.4-1.3,0.8-2.1,1.1s-1.5,0.6-2.2,0.9l-4.2,8.5c-0.1,0.3-0.5,0.5-1.1,0.6
		c-0.6,0-1.2,0-1.9-0.1c-0.6-0.1-1.2-0.4-1.6-0.7c-0.4-0.3-0.5-0.7-0.3-1.1c0.1-0.3,0.3-0.7,0.6-1.3s0.5-1.2,0.8-1.8
		s0.5-1.3,0.8-1.9s0.5-1.2,0.6-1.6c0,0-0.1,0-0.1-0.1c-1.2-0.5-2.2-1.1-2.8-2s-1-1.8-1.1-2.8c-0.1-1-0.1-2.1,0.2-3.2
		s0.7-2.1,1.4-3.1c0.8-1.3,1.8-2.1,3-2.3c1.3-0.3,2.5-0.2,3.7,0.1c1.2,0.3,2.2,0.9,3.1,1.6c0.9,0.7,1.4,1.4,1.5,2c0,0.2,0,0.6-0.1,1
		s-0.2,0.9-0.4,1.4c-0.1,0.5-0.3,1-0.5,1.5C206.7,31.5,206.5,31.9,206.4,32.2z M200.1,34.3c0.3-0.8,0.7-1.7,1-2.7s0.6-1.9,0.8-2.7
		c0.2-0.9,0.4-1.6,0.5-2.2s0.3-1,0.4-1.2c-0.9,0.2-1.6,0.7-2.1,1.5s-0.8,1.6-0.9,2.5s-0.2,1.8-0.1,2.7
		C199.7,33.1,199.9,33.8,200.1,34.3z"/>
	<path d="M241.1,38.9c0.1-0.2,0.4-0.2,0.9,0c0.5,0.3,0.9,0.7,1.4,1.2s0.8,1.1,1.1,1.7c0.3,0.6,0.4,1.1,0.2,1.5
		c-0.4,1.3-1.2,2.9-2.3,4.8c-1.1,1.9-2.3,3.8-3.8,5.6c-1.4,1.8-2.9,3.4-4.5,4.7s-3.1,2-4.5,2c-0.9,0-1.9-0.2-3.1-0.7
		c-1.2-0.5-2.3-1.1-3.3-2s-1.9-1.9-2.6-3c-0.7-1.2-1-2.4-0.9-3.8c0.1-1.2,0.5-2.7,1-4.6s1.2-3.8,2.1-6c0.9-2.2,1.8-4.6,2.9-7.1
		c1.1-2.6,2.2-5.2,3.5-8v-0.1c-0.9,0-1.5,0-1.8,0s-0.5,0-0.6,0s-0.3,0-0.5,0s-0.7,0-1.5,0.1c-0.2,0-0.3-0.3-0.3-0.8s0.1-1.1,0.2-1.8
		c0.2-0.7,0.4-1.3,0.6-1.9c0.3-0.6,0.5-0.9,0.8-0.9c1-0.2,2-0.2,2.9-0.1c0.9,0.1,1.8,0.1,2.6,0l3.6-8.3c0.8-1.8,1.4-3.2,1.9-4.2
		c0.5-1.1,0.7-1.6,0.7-1.7c0-0.6,0.3-0.9,0.8-0.9c0.1,0,0.5,0.2,1,0.5c0.5,0.3,1,0.7,1.6,1.2s1.1,1.1,1.5,1.7
		c0.5,0.6,0.7,1.3,0.7,1.9c0,0.1-0.1,0.6-0.4,1.3c-0.3,0.7-0.6,1.6-1,2.5c-0.4,1-0.8,2-1.3,3.1s-0.9,2-1.2,2.9v-0.1
		c0.4,0,0.9,0,1.4,0s1.1,0,1.7,0c0.6,0,1.1,0,1.7,0c0.5,0,1,0,1.4,0.1c0.3,0,0.5,0.1,0.7,0.2s0.2,0.3,0.1,0.7
		c-0.1,0.4-0.3,0.9-0.7,1.6s-0.9,1.7-1.7,3l-7.2,0.2c-1.4,3.1-2.8,6.1-4.2,9s-2.6,5.6-3.6,8.1c-1.1,2.5-1.9,4.7-2.6,6.7
		c-0.6,2-1,3.7-1,5c0,1.7,0.3,2.6,1,2.8s1.6,0,2.6-0.8c1.1-0.7,2.2-1.8,3.5-3.2s2.5-3,3.6-4.6c1.2-1.7,2.2-3.3,3.1-4.9
		C240.3,41.3,240.9,40,241.1,38.9z"/>
</g>
<g id="I_shape">
	<polygon points="297.4,27.3 281.2,19.7 295.8,9.4 296.5,16.6 	"/>
	<polygon points="318.8,59.5 320.7,77.3 304.3,70 310.1,65.8 	"/>
	<polygon points="301.2,68.6 284.9,61 299.6,50.7 300.3,57.9 	"/>
	<polygon points="282.5,41.6 298.8,49.2 284.1,59.5 283.4,52.3 	"/>
	<polygon points="301.2,51 317.6,58.5 303,68.9 302.3,61.7 	"/>
	<polygon points="299.4,47.9 283.1,40.3 297.7,30.1 298.4,37.2 	"/>
	<polygon points="280.8,21.2 297.1,28.9 282.4,39.1 281.8,31.9 	"/>
	<polygon points="278.9,0.7 295.2,8.3 280.5,18.5 279.8,11.3 	"/>
</g>
<g id="Calque_3">
	<line class="st0" x1="309.9" y1="56.9" x2="275" y2="7.6"/>
	<line class="st0" x1="317.3" y1="39" x2="294.3" y2="6.8"/>
	<line class="st0" x1="291" y1="59.6" x2="315.9" y2="5.7"/>
</g>
<text transform="matrix(1 0 0 1 299.8666 45.7507)" class="st1 st2">A</text>
</svg>
