<?xml version="1.0" encoding="utf-8"?>
<!-- Generator: Adobe Illustrator 21.1.0, SVG Export Plug-In . SVG Version: 6.00 Build 0)  -->
<svg version="1.1" id="Calque_1" xmlns="http://www.w3.org/2000/svg" xmlns:xlink="http://www.w3.org/1999/xlink" x="0px" y="0px"
	 viewBox="0 0 247 70" style="enable-background:new 0 0 247 70;" xml:space="preserve">
<g>
	<path d="M36.1,1.7c1.8-1.1,3.6-1.8,5.4-2c1.8-0.2,3.5-0.1,4.9,0.5c1.4,0.6,2.5,1.6,3.3,3c0.8,1.4,1.2,3.1,1.5,5.1s0.2,3.9,0,6.1
		c-0.2,2.1-0.7,4.2-1.3,6.2c-0.2,0.5-0.3,0.9-0.5,1.3c-0.1,0.4-0.2,0.8-0.3,1.2c-0.1,0.4-0.6,0.8-1.3,1.2c-0.7,0.4-1.5,0.7-2.2,0.9
		c-0.8,0.2-1.5,0.4-2.1,0.4c-0.6,0-0.8-0.1-0.7-0.4l-0.1,0.1c0-0.2,0.1-0.5,0.2-0.7c0.1-0.3,0.2-0.5,0.2-0.7
		c0.4-1.3,0.8-2.7,1.2-4.3c0.4-1.6,0.7-3.2,1-4.8c0.3-1.6,0.5-3.2,0.6-4.7C46.1,8.5,46.1,7.1,46,6c-0.1-1.2-0.4-2.1-0.8-2.8
		c-0.5-0.7-1.1-1.1-2-1.1c-1.2,0-2.5,1.1-3.9,3.2c-1.4,2.1-3.1,5.3-5.2,9.4c-0.6,1.1-1.3,2.6-2.2,4.4C31,21,30,23,29,25.3
		c-1.1,2.3-2.2,4.6-3.3,7c-1.2,2.4-2.3,4.7-3.3,6.9c-1,2.2-2,4.2-2.8,6c-0.9,1.8-1.5,3.2-2,4.2c1.1-0.1,2.2-0.2,3.4-0.4
		c1.2-0.1,2.4-0.3,3.6-0.4c1.2-0.1,2.4-0.1,3.7-0.1c1.3,0,2.5,0.1,3.7,0.3c1.7,0.2,3.2,0.8,4.5,1.6c1.3,0.8,2.4,1.8,3.4,2.9
		c0.9,1.1,1.7,2.4,2.3,3.7c0.6,1.4,1,2.7,1.2,4.1c0.2,1.4,0.2,2.6,0,3.8c-0.2,1.2-0.5,2.2-1,3.1c-0.2,0.4-0.5,0.7-0.8,0.9
		c-0.3,0.2-0.6,0.4-0.9,0.7c-0.3,0.3-0.9,0.3-1.6,0c-0.7-0.3-1.4-0.6-2.1-1.1c-0.7-0.5-1.2-1-1.6-1.5s-0.5-0.9-0.4-1.1l-0.1,0.1
		c0.2-0.1,0.5-0.3,0.6-0.3c0.2-0.1,0.4-0.2,0.5-0.4c2.3-1.9,3.7-3.5,4-4.8c0.4-1.3,0-2.3-1-3.1c-1-0.8-2.5-1.4-4.5-1.7
		c-2-0.4-4.2-0.5-6.6-0.5c-2.4,0-4.8,0.1-7.2,0.4c-2.4,0.3-4.5,0.6-6.3,1c-2.7,0.6-4.7,1.2-6.1,1.7c-1.4,0.5-2.7,0.9-3.8,1
		c-0.3,0-0.8-0.2-1.3-0.9c-0.5-0.6-1-1.4-1.5-2.2c-0.5-0.8-0.8-1.6-0.9-2.3c-0.2-0.7,0-1.2,0.4-1.3l8-2.3c0.2,0,0.6-0.6,1.3-1.8
		c0.7-1.3,1.5-3,2.6-5c1-2.1,2.2-4.5,3.5-7.2c1.3-2.7,2.6-5.5,4-8.5c1.4-2.9,2.8-5.8,4.3-8.7c1.4-2.9,2.9-5.5,4.2-7.9
		c1.4-2.4,2.7-4.5,3.9-6.2C34.1,3.4,35.2,2.3,36.1,1.7z"/>
	<path d="M51.5,52.3c1.6,0.5,3.2,0.6,4.9,0.2c1.7-0.4,3.3-1,4.9-1.8c1.6-0.9,3.2-2,4.7-3.2c1.5-1.3,2.9-2.6,4.1-4.1
		c1.2-1.4,2.3-2.8,3.2-4.2c0.9-1.4,1.6-2.6,2-3.7c0.2-0.5,0.6-0.7,1.1-0.6c0.5,0,1.1,0.2,1.7,0.5c0.6,0.3,1.1,0.7,1.5,1.1
		c0.4,0.5,0.6,0.8,0.5,1.1c-0.4,1.5-1.1,3-2,4.6s-2,3.1-3.3,4.7c-1.3,1.5-2.8,2.9-4.4,4.3c-1.6,1.3-3.3,2.5-5.1,3.4
		c-1.8,0.9-3.7,1.6-5.6,2c-1.9,0.4-3.9,0.4-5.9,0.1c-1-0.2-2.1-0.6-3.4-1.3s-2.5-1.6-3.6-2.7c-1.1-1.1-2-2.3-2.7-3.8
		c-0.7-1.4-1-3-0.8-4.7c0.1-1.6,0.5-3.3,1.2-5.1c0.7-1.8,1.5-3.5,2.6-5.3c1-1.7,2.2-3.4,3.6-4.9c1.3-1.5,2.7-2.9,4.1-4.1
		c1.4-1.2,2.9-2.1,4.3-2.8c1.5-0.7,2.8-1,4.1-1c1,0,2,0.3,2.9,1c0.9,0.7,1.7,1.5,2.4,2.5c0.7,1,1.1,2,1.5,3.1c0.3,1,0.3,1.9,0,2.6
		c-0.7,1.8-1.5,3.3-2.5,4.7c-1,1.4-2.1,2.5-3.3,3.5c-1.2,1-2.3,1.8-3.5,2.5c-1.2,0.7-2.2,1.2-3.2,1.6c-0.9,0.4-1.7,0.7-2.4,0.8
		c-0.6,0.2-1,0.2-1.1,0.2c-0.2,0-0.5-0.2-0.9-0.5c-0.4-0.3-0.7-0.5-1-0.9c-0.3-0.3-0.6-0.6-0.9-1c-0.3-0.4-0.5-0.7-0.6-0.9
		c-0.4,0.9-0.8,1.9-1.1,3.1c-0.4,1.2-0.6,2.4-0.7,3.6c-0.1,1.2,0.1,2.3,0.5,3.2C49.5,51.2,50.3,51.9,51.5,52.3z M65.4,28.9
		c0.4-0.9,0.7-1.5,0.7-1.9c0.1-0.4,0-0.6-0.2-0.6c-0.2,0-0.6,0-1.1,0.2s-1.1,0.5-1.8,0.7c-1.1,0.5-2.2,1.2-3.4,2
		c-1.2,0.8-2.3,1.7-3.4,2.7c-1.1,1-2.1,2.1-3,3.3c-0.9,1.2-1.6,2.4-2.2,3.6c1.3,0,2.7-0.4,4.3-1.1c1.5-0.7,3-1.6,4.3-2.7
		c1.4-1,2.6-2.1,3.6-3.3C64.2,30.7,65,29.7,65.4,28.9z"/>
	<path d="M99.3,29.9c0.2,0.8,0.2,1.8,0.1,3.2c-0.1,1.4-0.4,3-0.9,4.7c-0.5,1.8-1.1,3.6-2,5.6c-0.9,2-1.9,3.9-3.1,5.8
		c-0.1,0.1-0.1,0.3,0,0.4c0.5,0.1,1,0.1,1.6,0c0.9-0.4,1.9-1.2,3-2.4c1.1-1.2,2.2-2.7,3.3-4.3c1.1-1.7,2.1-3.4,3.1-5.3
		c0.9-1.9,1.7-3.7,2.2-5.4c0-0.2,0.3-0.1,0.7,0.3c0.4,0.4,0.8,0.9,1.2,1.5s0.8,1.3,1.1,2c0.3,0.7,0.4,1.2,0.4,1.6
		c-0.3,1.4-1,3-2,4.9s-2.3,3.7-3.8,5.4c-1.5,1.8-3.1,3.2-4.8,4.4C97.7,53.4,96,54,94.3,54h-0.5c-0.4,0-0.6,0-0.8-0.1
		c-1-0.1-2-0.3-2.8-0.6c-0.6,0.6-1.2,1.1-1.8,1.7c-0.6,0.5-1.3,1.1-1.9,1.5c-1.2,0.9-2.6,1.4-4.2,1.5c-1.6,0.1-3.1-0.1-4.6-0.5
		c-1.5-0.5-2.8-1.1-4-2c-1.2-0.9-2-1.8-2.5-2.7c-0.5-0.9-0.7-2.2-0.7-3.7c0-1.5,0.2-3.2,0.6-5c0.4-1.8,1-3.7,1.7-5.6
		c0.7-1.9,1.6-3.8,2.7-5.6c1.1-1.8,2.3-3.4,3.6-4.9c1.3-1.5,2.7-2.7,4.3-3.6c1.7-0.9,3.4-1.4,5.2-1.4c1.8,0,3.4,0.4,4.9,1
		s2.8,1.5,3.8,2.6S99,28.8,99.3,29.9z M76.4,51.3c0.6,1.1,1.3,1.9,2,2.3c0.7,0.4,1.5,0.5,2.3,0.3c0.8-0.2,1.6-0.6,2.5-1.4
		c0.9-0.7,1.7-1.6,2.5-2.6c-1.3-1.6-2.1-3.5-2.4-5.6c-0.3-2.1,0-4.2,0.9-6.2c0.6-1.3,1.2-2.2,2-2.7c0.8-0.5,1.6-0.9,2.4-1
		c0.8-0.1,1.6-0.1,2.3,0s1.3,0.2,1.7,0.3c0,0,0.1,0.1,0.2,0.1c0.4-1.4,0.6-2.7,0.7-3.9c0.1-1.2,0-2.2-0.2-2.9
		c-0.3-0.7-0.7-1.1-1.4-1.3c-0.6-0.1-1.5,0.1-2.7,0.7c-1,0.6-2.1,1.4-3.2,2.6c-1.1,1.2-2.3,2.5-3.3,4c-1.1,1.5-2.1,3.1-3,4.8
		c-0.9,1.7-1.7,3.3-2.3,4.9c-0.6,1.6-1,3.1-1.2,4.4C75.9,49.4,76,50.5,76.4,51.3z M92.5,35.6l-0.3,0.2c-0.4,0.2-0.9,0.5-1.4,0.9
		c-0.5,0.4-0.8,0.8-1.1,1.2c-0.9,1.5-1.4,2.8-1.6,4.1c-0.2,1.3-0.1,2.4,0.2,3.4c0.9-1.6,1.6-3.2,2.3-4.9
		C91.5,38.9,92,37.2,92.5,35.6z"/>
	<path d="M114.8,27.7c-0.6,1.1-1.1,2-1.5,2.8c-0.4,0.8-0.8,1.5-1.2,2.2c-0.4,0.7-0.7,1.3-1,1.8c-0.3,0.5-0.6,1.1-0.9,1.6
		c-0.1-0.1,0-0.6,0.5-1.3c0.5-0.7,1.2-1.6,2.1-2.7c0.9-1,1.9-2.2,3-3.4c1.1-1.2,2.2-2.3,3.2-3.4c1.1-1.1,2.1-2,3-2.8
		c0.9-0.8,1.6-1.3,2.2-1.6c0.4-0.2,1.1-0.1,2,0.3c0.9,0.4,1.7,1,2.5,1.7c0.8,0.7,1.5,1.5,2,2.4c0.5,0.9,0.6,1.7,0.4,2.4
		c-0.6,1.4-1.3,2.9-2.2,4.6c-0.8,1.7-1.7,3.4-2.6,5.1c-0.9,1.8-1.7,3.5-2.5,5.2c-0.8,1.7-1.3,3.2-1.7,4.6c-0.4,1.4-0.5,2.5-0.5,3.4
		c0.1,0.9,0.5,1.5,1.3,1.7c0.7,0.2,1.4,0,2.3-0.6c0.9-0.6,1.8-1.4,2.8-2.4c1-1,2-2.2,3-3.5c1-1.3,2-2.7,2.9-4.1
		c0.9-1.4,1.8-2.8,2.6-4.1c0.8-1.3,1.5-2.5,2-3.5c0.1-0.2,0.4-0.3,0.9-0.1c0.5,0.2,0.9,0.4,1.4,0.8c0.4,0.4,0.8,0.8,1.1,1.3
		c0.3,0.5,0.4,0.9,0.2,1.3c-0.2,0.6-0.7,1.4-1.4,2.6c-0.7,1.2-1.5,2.5-2.4,3.9c-0.9,1.4-2,2.9-3.1,4.4c-1.1,1.5-2.3,2.9-3.6,4.1
		c-1.2,1.2-2.5,2.2-3.7,3c-1.3,0.8-2.4,1.1-3.5,1c-0.9,0-1.8-0.3-3-0.8s-2.2-1.2-3.2-2c-1-0.8-1.7-1.8-2.3-3
		c-0.6-1.1-0.7-2.4-0.4-3.8c0.3-1.8,1.1-4.1,2.5-6.8c1.3-2.7,2.9-5.8,4.9-9.4c0-0.1,0-0.2,0.1-0.2c0.4-0.5,0.4-0.7-0.1-0.4
		c-0.5,0.3-1.5,1-2.8,2.2c-1.4,1.2-3.2,2.8-5.3,4.9c-2.2,2.1-4.7,4.8-7.6,7.9c-0.4,0.4-0.9,1.2-1.4,2.3c-0.6,1.1-1.1,2.3-1.6,3.5
		s-0.9,2.3-1.3,3.2c-0.4,0.9-0.6,1.4-0.6,1.5c-0.4,0.4-0.9,0.5-1.4,0.1c-0.6-0.3-1.1-0.9-1.6-1.6c-0.5-0.7-0.9-1.5-1.1-2.3
		c-0.3-0.9-0.3-1.5,0-2.1c0.6-1.3,1.4-3,2.3-5c0.9-2,2-4.3,3.1-6.8c1.1-2.5,2.4-5.2,3.7-8.1c1.3-2.9,2.6-5.8,3.9-8.8
		c0.3-0.7,0.7-0.8,1.3-0.5c0.6,0.3,1.1,0.9,1.7,1.7c0.5,0.8,0.9,1.7,1.2,2.7C115.2,26.2,115.2,27,114.8,27.7z"/>
	<path d="M144.3,14.4c0.9,0.5,1.8,0.5,2.6,0c0.8-0.5,1.4-1.2,1.8-2.1c0.4-0.9,0.6-2,0.6-3.2c0-1.2-0.3-2.2-0.9-3.2l0.1,0.1
		c0.1-0.3,0.6-0.7,1.4-1c0.8-0.4,1.7-0.6,2.7-0.8c1-0.2,1.9-0.2,2.8,0c0.9,0.1,1.4,0.6,1.5,1.3c0.2,0.9,0,2.2-0.7,3.6
		c-0.6,1.5-1.6,2.9-2.7,4.2c-1.2,1.3-2.6,2.4-4.1,3.3c-1.6,0.9-3.2,1.2-4.8,1.1c-0.4,0-0.6-0.3-0.8-0.6c-0.1-0.4-0.2-0.8-0.2-1.2
		c0-0.4,0.1-0.8,0.2-1.1C144,14.4,144.2,14.3,144.3,14.4z"/>
	<path d="M181.8,29.9c1.8-0.5,3-1,3.7-1.7c0.7-0.6,0.9-1.2,0.7-1.7c-0.2-0.5-0.7-0.8-1.6-1c-0.9-0.1-1.9,0-3.1,0.6
		c-1.7,0.7-3.4,2-5.2,3.8c-1.8,1.8-3.3,3.9-4.8,6.2c-1.4,2.3-2.6,4.6-3.6,7c-0.9,2.4-1.5,4.5-1.6,6.3c0,0.6,0.1,1,0.4,1.3
		c0.3,0.3,0.7,0.5,1.2,0.5c1.1,0,2.2-0.4,3.4-1.1c1.2-0.8,2.4-1.8,3.6-3c1.2-1.3,2.4-2.7,3.6-4.2c1.2-1.5,2.4-3.1,3.5-4.7
		c1.1-1.6,2.2-3.1,3.2-4.6c1-1.5,1.9-2.7,2.7-3.8c0-0.1,0.3,0,0.8,0.4c0.5,0.3,1,0.8,1.5,1.3c0.5,0.5,0.9,1.1,1.2,1.6
		c0.3,0.6,0.4,1,0.2,1.4c0,0-0.2,0.4-0.5,1c-0.3,0.6-0.7,1.3-1.1,2.2c-0.4,0.8-0.8,1.6-1.2,2.5c-0.4,0.8-0.7,1.4-0.9,1.8
		c-0.4,0.9-0.8,1.9-1.2,3.1c-0.4,1.1-0.7,2.2-0.9,3.3c-0.2,1-0.4,1.9-0.4,2.7c0,0.8,0,1.2,0.3,1.3c0.8,0.3,1.8-0.2,3-1.4
		c1.2-1.2,2.5-2.8,3.7-4.8c1.3-1.9,2.5-4,3.6-6.3c1.1-2.3,2-4.3,2.7-6c0-0.2,0.3-0.2,0.6,0.1c0.4,0.3,0.8,0.6,1.2,1.1
		c0.4,0.5,0.8,1,1.1,1.6c0.3,0.6,0.5,1,0.5,1.4c0,0.4-0.2,1.2-0.6,2.3c-0.4,1.1-1,2.3-1.8,3.7c-0.8,1.4-1.7,2.8-2.7,4.3
		c-1,1.5-2.1,2.9-3.3,4.1c-1.1,1.2-2.3,2.3-3.5,3.1s-2.4,1.2-3.5,1.2c-0.7,0-1.5-0.2-2.3-0.7c-0.9-0.5-1.7-1-2.4-1.7
		c-0.8-0.7-1.4-1.4-1.9-2.1c-0.5-0.7-0.7-1.3-0.7-1.8V50c-0.9,0.9-1.8,1.8-2.7,2.6s-1.7,1.6-2.6,2.2c-0.9,0.6-1.7,1.1-2.5,1.5
		c-0.8,0.3-1.6,0.4-2.4,0.3c-1-0.2-2-0.7-2.9-1.4c-0.9-0.8-1.6-1.6-2.3-2.7c-0.7-1-1.2-2.1-1.6-3.2c-0.4-1.1-0.6-2.1-0.6-3
		c0-1.6,0.2-3.3,0.7-5.2c0.5-1.9,1.3-3.7,2.3-5.6c1-1.9,2.1-3.7,3.4-5.4c1.3-1.8,2.6-3.3,4.1-4.7c1.4-1.4,2.9-2.4,4.3-3.2
		c1.4-0.8,2.8-1.2,4.1-1.2c1.1,0,2.1,0.2,3.1,0.7c1,0.5,1.9,1.1,2.7,1.7c0.8,0.7,1.4,1.4,1.9,2.1c0.5,0.7,0.7,1.4,0.8,1.9
		c0.1,1.2-0.2,2.3-0.7,3.2c-0.6,0.9-1.4,1.7-2.5,2.3c-0.6,0.3-1.1,0.6-1.6,0.8c-0.1,0.1-0.4,0-0.7-0.4c-0.3-0.4-0.6-0.8-0.9-1.3
		c-0.3-0.5-0.6-1-0.7-1.4C181.7,30.2,181.7,30,181.8,29.9z"/>
	<path d="M206.4,28.5c-0.1,0.2,0.2,0,0.9-0.5s1.4-1.1,2.3-1.9c0.9-0.8,1.8-1.6,2.7-2.5s1.6-1.6,2-2.1c0.4-0.6,0.9-0.7,1.5-0.3
		s1.1,0.9,1.6,1.7c0.5,0.8,1,1.6,1.4,2.4c0.4,0.9,0.6,1.5,0.6,2c0,0.3-0.2,0.9-0.7,2c-0.5,1-1,2.3-1.7,3.7c-0.7,1.4-1.4,2.9-2.1,4.4
		c-0.7,1.5-1.3,2.9-1.8,4.2c-1.2,3.1-2.1,5.7-2.6,7.7c-0.5,2.1-0.3,3.4,0.7,3.9c0.8,0.4,1.6,0.3,2.5-0.3c0.9-0.6,1.8-1.5,2.8-2.6
		c0.9-1.2,1.8-2.5,2.7-4s1.7-3,2.4-4.5c0.7-1.5,1.4-2.8,1.8-4c0.5-1.2,0.8-2.1,1-2.6c0-0.1,0.3-0.2,0.9-0.1c0.5,0.1,1.1,0.2,1.6,0.5
		c0.6,0.3,1.1,0.6,1.5,1c0.4,0.4,0.5,0.9,0.2,1.5c-0.2,0.5-0.6,1.4-1,2.6c-0.4,1.2-1,2.6-1.6,4.1c-0.7,1.5-1.5,3.1-2.5,4.7
		s-2.1,3-3.3,4.2c-1.3,1.2-2.7,2.2-4.3,2.8c-1.6,0.6-3.4,0.7-5.4,0.3c-0.3,0-0.8-0.3-1.6-0.9c-0.8-0.5-1.6-1.2-2.3-1.9
		c-0.8-0.8-1.5-1.6-2-2.6c-0.6-0.9-0.8-1.9-0.7-2.8c0.1-1.2,0.4-2.6,1.1-4.3c0.6-1.7,1.3-3.4,2-5.2c0.7-1.7,1.3-3.3,1.9-4.8
		c0.6-1.5,0.9-2.6,1-3.3c-0.6,0.4-1.3,0.8-2.1,1.1c-0.8,0.3-1.5,0.6-2.2,0.9l-4.2,8.5c-0.1,0.3-0.5,0.5-1.1,0.6
		c-0.6,0-1.2,0-1.9-0.1c-0.6-0.1-1.2-0.4-1.6-0.7c-0.4-0.3-0.5-0.7-0.3-1.1c0.1-0.3,0.3-0.7,0.6-1.3c0.3-0.6,0.5-1.2,0.8-1.8
		c0.3-0.6,0.5-1.3,0.8-1.9s0.5-1.2,0.6-1.6c0,0-0.1,0-0.1-0.1c-1.2-0.5-2.2-1.1-2.8-2c-0.6-0.9-1-1.8-1.1-2.8
		c-0.1-1-0.1-2.1,0.2-3.2c0.3-1.1,0.7-2.1,1.4-3.1c0.8-1.3,1.8-2.1,3-2.3c1.3-0.3,2.5-0.2,3.7,0.1c1.2,0.3,2.2,0.9,3.1,1.6
		c0.9,0.7,1.4,1.4,1.5,2c0,0.2,0,0.6-0.1,1c-0.1,0.4-0.2,0.9-0.4,1.4c-0.1,0.5-0.3,1-0.5,1.5C206.7,27.8,206.5,28.2,206.4,28.5z
		 M200.1,30.6c0.3-0.8,0.7-1.7,1-2.7c0.3-1,0.6-1.9,0.8-2.7c0.2-0.9,0.4-1.6,0.5-2.2c0.1-0.6,0.3-1,0.4-1.2
		c-0.9,0.2-1.6,0.7-2.1,1.5c-0.5,0.8-0.8,1.6-0.9,2.5s-0.2,1.8-0.1,2.7C199.7,29.4,199.9,30.1,200.1,30.6z"/>
	<path d="M241.1,35.2c0.1-0.2,0.4-0.2,0.9,0c0.5,0.3,0.9,0.7,1.4,1.2c0.5,0.5,0.8,1.1,1.1,1.7c0.3,0.6,0.4,1.1,0.2,1.5
		c-0.4,1.3-1.2,2.9-2.3,4.8c-1.1,1.9-2.3,3.8-3.8,5.6c-1.4,1.8-2.9,3.4-4.5,4.7c-1.6,1.3-3.1,2-4.5,2c-0.9,0-1.9-0.2-3.1-0.7
		c-1.2-0.5-2.3-1.1-3.3-2c-1-0.9-1.9-1.9-2.6-3c-0.7-1.2-1-2.4-0.9-3.8c0.1-1.2,0.5-2.7,1-4.6s1.2-3.8,2.1-6
		c0.9-2.2,1.8-4.6,2.9-7.1c1.1-2.6,2.2-5.2,3.5-8v-0.1c-0.9,0-1.5,0-1.8,0c-0.3,0-0.5,0-0.6,0c-0.1,0-0.3,0-0.5,0s-0.7,0-1.5,0.1
		c-0.2,0-0.3-0.3-0.3-0.8c0-0.5,0.1-1.1,0.2-1.8c0.2-0.7,0.4-1.3,0.6-1.9c0.3-0.6,0.5-0.9,0.8-0.9c1-0.2,2-0.2,2.9-0.1
		c0.9,0.1,1.8,0.1,2.6,0l3.6-8.3c0.8-1.8,1.4-3.2,1.9-4.2c0.5-1.1,0.7-1.6,0.7-1.7c0-0.6,0.3-0.9,0.8-0.9c0.1,0,0.5,0.2,1,0.5
		c0.5,0.3,1,0.7,1.6,1.2c0.6,0.5,1.1,1.1,1.5,1.7c0.5,0.6,0.7,1.3,0.7,1.9c0,0.1-0.1,0.6-0.4,1.3c-0.3,0.7-0.6,1.6-1,2.5
		c-0.4,1-0.8,2-1.3,3.1c-0.5,1.1-0.9,2-1.2,2.9v-0.1c0.4,0,0.9,0,1.4,0s1.1,0,1.7,0c0.6,0,1.1,0,1.7,0c0.5,0,1,0,1.4,0.1
		c0.3,0,0.5,0.1,0.7,0.2c0.2,0.1,0.2,0.3,0.1,0.7c-0.1,0.4-0.3,0.9-0.7,1.6c-0.4,0.7-0.9,1.7-1.7,3l-7.2,0.2c-1.4,3.1-2.8,6.1-4.2,9
		c-1.4,2.9-2.6,5.6-3.6,8.1c-1.1,2.5-1.9,4.7-2.6,6.7c-0.6,2-1,3.7-1,5c0,1.7,0.3,2.6,1,2.8c0.7,0.2,1.6,0,2.6-0.8
		c1.1-0.7,2.2-1.8,3.5-3.2c1.3-1.4,2.5-3,3.6-4.6c1.2-1.7,2.2-3.3,3.1-4.9C240.3,37.6,240.9,36.3,241.1,35.2z"/>
</g>
</svg>
