<?xml version="1.0" encoding="utf-8"?>
<!-- Generator: Adobe Illustrator 21.1.0, SVG Export Plug-In . SVG Version: 6.00 Build 0)  -->
<svg version="1.1" id="Calque_1" xmlns="http://www.w3.org/2000/svg" xmlns:xlink="http://www.w3.org/1999/xlink" x="0px" y="0px"
	 viewBox="0 0 282.5 458.3" style="enable-background:new 0 0 282.5 458.3;" xml:space="preserve">
<style type="text/css">
	.st0{fill:none;}
	.st1{font-family:'ArialMT';}
	.st2{font-size:200px;}
</style>
<title>LeonArt</title>
<g id="I_shape">
	<polygon points="134.2,159.1 37,113.7 124.6,52.3 128.7,95.3 	"/>
	<polygon points="262,351.6 273,458.4 175.4,414.8 210.1,389.2 	"/>
	<polygon points="156.8,406 59.5,360.6 147.2,299.2 151.2,342.2 	"/>
	<polygon points="44.8,244.9 142.1,290.4 54.5,351.8 50.4,308.8 	"/>
	<polygon points="156.9,301.1 254.7,345.5 167.7,407.8 163.2,364.8 	"/>
	<polygon points="145.7,282.5 48.3,237.3 135.8,175.8 140,218.7 	"/>
	<polygon points="34.9,123 132.1,168.5 44.5,229.9 40.4,186.9 	"/>
	<polygon points="23.4,0 120.6,45.5 33,106.8 28.9,63.8 	"/>
</g>
<g id="Calque_3">
	<line class="st0" x1="208.7" y1="336" x2="0" y2="41.3"/>
	<line class="st0" x1="252.7" y1="229.2" x2="115.7" y2="36.4"/>
	<line class="st0" x1="95.7" y1="352.5" x2="244.4" y2="29.9"/>
</g>
<text transform="matrix(1 0 0 1 148.72 269.58)" class="st1 st2">A</text>
</svg>
